<svg version="1.1" id="Layer_1" width="215px" height="100%" xmlns="http://www.w3.org/2000/svg"
     xmlns:xlink="http://www.w3.org/1999/xlink" x="0px" y="0px" viewBox="0 0 300 52.6" xml:space="preserve">
    <path id="XMLID_27_" fill="#EE342B" class="st1" d="M217.7,0.8c0-0.3,0-0.5-0.1-0.8c-11.4,0-22.9,0-34.4,0c0,0.2,0,0.4,0,0.7c0,17,0,34,0,51.1
	c0,0.2,0,0.5,0,0.8c11.5,0,22.9,0,34.4,0c0-0.3,0-0.6,0-0.9C217.7,34.7,217.7,17.7,217.7,0.8z M186.7,4.7c2.9,0.4,5.8,0.9,8.8,1.4
	c0,11,0,21.9,0,32.9c5.1-0.6,10.1-1.2,15.1-1.8c0,3,0,6,0,9.1c-7.9,1-15.8,1.9-23.8,2.9C186.7,34.3,186.7,19.5,186.7,4.7z
	 M207.7,23.9c0-0.2,0-0.4,0-0.6c1.2,0,2.4,0,3.7,0c0,0.2,0,0.4,0,0.6C210.1,23.9,208.9,23.9,207.7,23.9z M211.4,24.4V25h-0.6v-0.6
	H211.4z M215.9,50.7c-7.7,0-15.4,0-23.3,0c6.9-0.8,13.5-1.6,20.2-2.4c0-14.5,0-28.9,0-43.5c-7-1-13.9-2-20.8-2.9c0,0,0-0.1,0-0.1
	c8,0,15.9,0,23.9,0C215.9,18.1,215.9,34.4,215.9,50.7z"></path>
</svg>