<svg version="1.1" id="Layer_1" width="215px" height="100%" xmlns="http://www.w3.org/2000/svg"
     xmlns:xlink="http://www.w3.org/1999/xlink" x="0px" y="0px" viewBox="0 0 300 52.6" xml:space="preserve">
    <path id="XMLID_114_" fill="#1699BE" class="st0" d="M0,51.8c0.2-0.8,0.4-1.6,0.5-2.4c2.1-12.4,4.3-24.8,6.4-37.2c0-0.2,0.1-0.4,0.1-0.6
	c2.5,0,4.9,0,7.4,0c3.1,9.2,6.2,18.5,9.3,28c3.2-9.5,6.3-18.7,9.4-28c2.5,0,4.9,0,7.5,0c2.2,13.4,4.5,26.7,6.7,40.2
	c-2.5,0-4.9,0-7.4,0c-1.4-8.3-2.8-16.7-4.2-25c0,0-0.1,0-0.1,0c-2.8,8.3-5.6,16.7-8.4,25c-2.3,0-4.5,0-6.8,0
	c-2.8-8.4-5.6-16.7-8.4-25c0,0-0.1,0-0.1,0c-1.4,8.3-2.9,16.6-4.3,25c-2.6,0-5.1,0-7.6,0C0,51.9,0,51.9,0,51.8z"></path>
    <path id="XMLID_111_" fill="#1699BE" class="st0" d="M74.9,52.6c-0.7-0.2-1.5-0.3-2.2-0.5C67,50,63.7,45.9,62.6,40c-0.6-3.2-0.3-6.4,0.9-9.4
	c2.8-7.2,10.5-11,17.4-8.3c1.5,0.6,2.7,1.6,4.1,2.5c0.2,0.1,0.4,0.3,0.7,0.6c0-1.1,0-2.1,0-3.1c2.5,0,5,0,7.4,0c0,9.9,0,19.8,0,29.7
	c-2.5,0-4.9,0-7.4,0c0-1,0-1.9,0-2.9c-0.1,0-0.2,0-0.2,0c-2.1,1.9-4.5,3.2-7.3,3.6C77.2,52.6,76,52.6,74.9,52.6z M86.1,37
	c0-0.5-0.1-0.9-0.1-1.4c-0.3-3.9-3.2-6.9-7.1-7.3c-3.8-0.5-7.3,1.8-8.5,5.4c-0.5,1.6-0.6,3.2-0.4,4.9c0.6,3.3,2.3,5.8,5.6,6.7
	c3.2,1,6.1,0.2,8.4-2.3C85.5,41.4,86.1,39.3,86.1,37z"></path>
    <path id="XMLID_107_" fill="#1699BE" class="st0" d="M153.3,22.2c2.5,0,4.9,0,7.4,0c0,9.9,0,19.8,0,29.7c-2.4,0-4.9,0-7.4,0
	C153.3,42,153.3,32.1,153.3,22.2z"></path>
    <path id="XMLID_106_" fill="#1699BE" class="st0" d="M152.2,14.7c0-2.7,2.1-4.7,4.8-4.7c2.7,0,4.8,2.2,4.8,4.9c0,2.6-2.1,4.8-4.8,4.8
	C154.4,19.6,152.2,17.4,152.2,14.7z"></path>
    <path id="XMLID_110_" fill="#EE342B" class="st1" d="M238.8,52.6c-0.9-0.2-1.8-0.3-2.6-0.6c-4.5-1.5-6.9-4.7-7.7-9.2c-0.4-2.1-0.5-4.2-0.5-6.3
	c-0.1-4.6,0-9.1,0-13.7c0-0.2,0-0.3,0-0.6c2.5,0,5,0,7.6,0c0,0.3,0,0.5,0,0.8c0,4.9,0,9.9,0,14.8c0,1.4,0.1,2.8,0.5,4.1
	c0.6,2.6,2.7,3.9,5.5,3.8c2.6-0.2,4.5-1.8,4.8-4.4c0.2-1.5,0.2-2.9,0.2-4.4c0-4.6,0-9.2,0-13.9c0-0.3,0-0.5,0-0.8c2.5,0,5,0,7.5,0
	c0,0.2,0,0.4,0,0.6c0,4.9,0,9.7-0.1,14.6c0,1.9-0.2,3.9-0.5,5.8c-1,5.2-4.7,8.7-10,9.4c-0.1,0-0.3,0.1-0.4,0.1
	C241.7,52.6,240.2,52.6,238.8,52.6z"></path>
    <path id="XMLID_109_" fill="#EE342B" class="st1" d="M300,51.9c-2.9,0-5.7,0-8.6,0c-2.3-3.2-4.6-6.4-7-9.7c-2.4,3.3-4.7,6.5-7,9.7
	c-2.9,0-5.7,0-8.7,0c3.8-5.3,7.5-10.4,11.3-15.7c-3.4-4.7-6.8-9.3-10.2-14.1c3,0,5.8,0,8.8,0c1.9,2.6,3.8,5.2,5.8,8
	c2-2.7,3.9-5.4,5.8-8c2.9,0,5.7,0,8.7,0c-3.4,4.7-6.8,9.4-10.1,14c3.8,5.2,7.5,10.4,11.3,15.5C300,51.8,300,51.9,300,51.9z"></path>
    <path id="XMLID_27_" fill="#EE342B" class="st1" d="M217.7,0.8c0-0.3,0-0.5-0.1-0.8c-11.4,0-22.9,0-34.4,0c0,0.2,0,0.4,0,0.7c0,17,0,34,0,51.1
	c0,0.2,0,0.5,0,0.8c11.5,0,22.9,0,34.4,0c0-0.3,0-0.6,0-0.9C217.7,34.7,217.7,17.7,217.7,0.8z M186.7,4.7c2.9,0.4,5.8,0.9,8.8,1.4
	c0,11,0,21.9,0,32.9c5.1-0.6,10.1-1.2,15.1-1.8c0,3,0,6,0,9.1c-7.9,1-15.8,1.9-23.8,2.9C186.7,34.3,186.7,19.5,186.7,4.7z
	 M207.7,23.9c0-0.2,0-0.4,0-0.6c1.2,0,2.4,0,3.7,0c0,0.2,0,0.4,0,0.6C210.1,23.9,208.9,23.9,207.7,23.9z M211.4,24.4V25h-0.6v-0.6
	H211.4z M215.9,50.7c-7.7,0-15.4,0-23.3,0c6.9-0.8,13.5-1.6,20.2-2.4c0-14.5,0-28.9,0-43.5c-7-1-13.9-2-20.8-2.9c0,0,0-0.1,0-0.1
	c8,0,15.9,0,23.9,0C215.9,18.1,215.9,34.4,215.9,50.7z"></path>
    <path id="XMLID_2_" fill="#1699BE" class="st0" d="M139.2,51.9c-2.9,0-5.7,0-8.6,0c-2.3-3.2-4.6-6.4-7-9.7c-2.4,3.3-4.7,6.5-7,9.7
	c-2.9,0-5.7,0-8.7,0c3.8-5.3,7.5-10.4,11.3-15.7c-3.4-4.7-6.8-9.3-10.2-14.1c3,0,5.8,0,8.8,0c1.9,2.6,3.8,5.2,5.8,8
	c2-2.7,3.9-5.4,5.8-8c2.9,0,5.7,0,8.7,0c-3.4,4.7-6.8,9.4-10.1,14c3.8,5.2,7.5,10.4,11.3,15.5C139.2,51.7,139.2,51.8,139.2,51.9z"></path>
</svg>